<svg enable-background="new 0 0 248.75754 50.81427" height="50.81427" viewBox="0 0 248.75754 50.81427" width="248.75754" xmlns="http://www.w3.org/2000/svg"><g fill="#5bd6ff"><path d="m81.3425 35.67812v-15.85644l-6.81641 12.15967h-1.47266l-6.84473-12.15967v15.85644h-2.5996v-20.50635h2.74414l7.42188 13.31494 7.45215-13.31494h2.71484v20.50635z"/><path d="m97.01437 35.82265c-1.44434 0-2.75879-.29346-3.94238-.88086-1.18457-.5874-2.2002-1.36719-3.04785-2.33984-.84668-.97168-1.50195-2.08398-1.96387-3.33545s-.69336-2.53174-.69336-3.84131c0-1.36719.24609-2.67627.7373-3.92822.49023-1.25146 1.16895-2.3584 2.03613-3.32129.86621-.96289 1.8916-1.72803 3.0752-2.29639 1.18457-.56738 2.46973-.85205 3.85645-.85205 1.44336 0 2.75293.30322 3.92773.91016 1.17383.60645 2.18555 1.40039 3.03223 2.38281.84766.98193 1.50195 2.09375 1.96387 3.33545.46289 1.24219.69336 2.5083.69336 3.79834 0 1.36719-.24512 2.67627-.73633 3.92773-.49121 1.25195-1.16504 2.354-2.02148 3.30713-.85742.95312-1.87793 1.71387-3.06152 2.28174-1.18458.56787-2.46973.85205-3.85548.85205zm-7.01855-10.39746c0 1.03955.16797 2.0459.50488 3.01807.33691.97266.81348 1.83398 1.42969 2.58496s1.35742 1.34765 2.22461 1.79053c.86621.44336 1.8291.66455 2.8877.66455 1.09766 0 2.08008-.23584 2.94629-.70801.86621-.47119 1.60254-1.0874 2.20898-1.84814s1.06934-1.62207 1.38672-2.58496.47656-1.93506.47656-2.91699c0-1.04004-.16895-2.0459-.50586-3.01855-.33691-.97168-.81836-1.8291-1.44336-2.57031-.62598-.74121-1.36816-1.33301-2.22461-1.77637-.85645-.44238-1.80469-.66406-2.84473-.66406-1.09766 0-2.0791.23096-2.94629.69287-.86621.4624-1.60254 1.06885-2.20898 1.81982s-1.07324 1.60791-1.40039 2.57031c-.32812.96337-.49121 1.94531-.49121 2.94628z"/><path d="m109.57687 15.17177 6.78809 17.24268 6.75781-17.24268h2.74414l-8.37598 20.50635h-2.25293l-8.4043-20.50635z"/><path d="m142.15012 33.36757v2.31055h-13.9209v-20.50635h13.66113v2.31055h-11.06152v6.64307h9.61719v2.16602h-9.61719v7.07617h11.32129z"/><path d="m159.24777 15.17177h2.19531l8.37598 20.50635h-2.77344l-2.42578-6.00732h-8.60645l-2.39746 6.00732h-2.77246zm4.79492 12.47705-3.69727-9.47314-3.8125 9.47314z"/><path d="m187.9216 30.39248c0 .79004-.1582 1.51221-.47656 2.1665-.31738.65479-.75098 1.21289-1.29883 1.6748-.54883.4624-1.18457.81885-1.90625 1.06885-.72266.25049-1.49805.37549-2.3252.37549h-9.7334v-20.50635h10.19531c.71191 0 1.35742.1543 1.93555.4624.57715.30811 1.06836.70752 1.47266 1.19824.4043.49121.7168 1.0498.93848 1.67529.2207.62598.33203 1.25635.33203 1.8916 0 1.021-.25488 1.96436-.76562 2.83057-.50977.8667-1.2373 1.51172-2.18066 1.93506 1.1748.34668 2.10352.98682 2.78711 1.9209s1.02538 2.03614 1.02538 3.30665zm-13.14062-12.96778v6.84521h6.52734c.46191 0 .88477-.09131 1.27051-.27441.38477-.18311.7168-.42822.99609-.73682.2793-.30762.50098-.66846.66504-1.08301.16309-.41357.24512-.85205.24512-1.31396 0-.48096-.07715-.93359-.23145-1.35742-.1543-.42334-.36035-.78955-.62109-1.09766-.25977-.30762-.57715-.54883-.95215-.72217-.37598-.17334-.77539-.25977-1.19922-.25977h-6.70019zm10.51269 12.50586c0-.46191-.08203-.90967-.24512-1.34277-.16406-.43359-.38574-.81348-.66504-1.14111-.2793-.32715-.61133-.58691-.99609-.77979-.38574-.19238-.80859-.28857-1.27051-.28857h-7.33594v7.04687h7.13379c.48047 0 .92383-.09619 1.32812-.28857s.76074-.44775 1.06934-.76562c.30762-.31738.54785-.68799.72168-1.11181.17286-.42335.25977-.86671.25977-1.32863z"/><path d="m199.63351 35.82265c-1.44434 0-2.75879-.29346-3.94238-.88086-1.18457-.5874-2.2002-1.36719-3.04785-2.33984-.84668-.97168-1.50195-2.08398-1.96387-3.33545s-.69336-2.53174-.69336-3.84131c0-1.36719.24609-2.67627.7373-3.92822.49023-1.25146 1.16895-2.3584 2.03613-3.32129.86621-.96289 1.8916-1.72803 3.0752-2.29639 1.18457-.56738 2.46973-.85205 3.85645-.85205 1.44336 0 2.75293.30322 3.92773.91016 1.17383.60645 2.18555 1.40039 3.03223 2.38281.84766.98193 1.50195 2.09375 1.96387 3.33545.46289 1.24219.69336 2.5083.69336 3.79834 0 1.36719-.24512 2.67627-.73633 3.92773-.49121 1.25195-1.16504 2.354-2.02148 3.30713-.85742.95312-1.87793 1.71387-3.06152 2.28174-1.18458.56787-2.46973.85205-3.85548.85205zm-7.01855-10.39746c0 1.03955.16797 2.0459.50488 3.01807.33691.97266.81348 1.83398 1.42969 2.58496s1.35742 1.34765 2.22461 1.79053c.86621.44336 1.8291.66455 2.8877.66455 1.09766 0 2.08008-.23584 2.94629-.70801.86621-.47119 1.60254-1.0874 2.20898-1.84814s1.06934-1.62207 1.38672-2.58496.47656-1.93506.47656-2.91699c0-1.04004-.16895-2.0459-.50586-3.01855-.33691-.97168-.81836-1.8291-1.44336-2.57031-.62598-.74121-1.36816-1.33301-2.22461-1.77637-.85645-.44238-1.80469-.66406-2.84473-.66406-1.09766 0-2.0791.23096-2.94629.69287-.86621.4624-1.60254 1.06885-2.20898 1.81982s-1.07324 1.60791-1.40039 2.57031c-.32812.96337-.49121 1.94531-.49121 2.94628z"/><path d="m220.94797 33.4833c1.19336 0 2.18457-.23145 2.97461-.69336.78906-.46191 1.41992-1.06347 1.8916-1.80517.47168-.74121.80371-1.58838.99707-2.5415.19238-.95312.28809-1.9209.28809-2.90283v-10.36867h2.59961v10.36865c0 1.38623-.1582 2.70068-.47656 3.94238-.31738 1.24219-.82324 2.33496-1.5166 3.27832-.69238.94336-1.59277 1.68945-2.7002 2.23828s-2.4502.82324-4.0293.82324c-1.63672 0-3.01367-.28906-4.12988-.8667-1.11719-.57764-2.0166-1.34277-2.7002-2.2959-.68359-.95312-1.1748-2.05078-1.47266-3.29248-.29883-1.24219-.44824-2.51758-.44824-3.82715v-10.36864h2.59961v10.36865c0 1.021.10059 2.00732.30273 2.96045s.53906 1.7959 1.01172 2.52734c.4707.73193 1.09668 1.32373 1.87695 1.77637s1.75684.67872 2.93165.67872z"/><path d="m248.75754 17.48232h-7.07617v18.1958h-2.59863v-18.1958h-7.07617v-2.31055h16.75098v2.31055z"/><path d="m13.7934 37.08026c.95306 0 1.72675-.77588 1.7243-1.72961 0-.953-.77441-1.72583-1.72852-1.7243-.95374 0-1.72522.77441-1.72455 1.73029.00092.95214.77662 1.72631 1.72877 1.72362z"/><path d="m38.39935 20.67059c-.73059.00067-1.31964.59064-1.31897 1.32056.00067.72906.59125 1.31964 1.32117 1.3172.72968 0 1.31818-.59167 1.31726-1.32031 0-.72968-.59173-1.3183-1.31946-1.31745z"/><path d="m25.40717 0c-14.00959 0-25.40717 11.39758-25.40717 25.40717 0 14.00952 11.39758 25.4071 25.40717 25.4071 14.00952 0 25.40717-11.39758 25.40717-25.4071-.00001-14.00959-11.39765-25.40717-25.40717-25.40717zm13.78979 31.37073c-.85596.00153-1.54919.69696-1.54919 1.55225 0 .18793.00732.21295.00732.21295.04993.17273-.01044.42651-.13354.5614l-2.28644 2.51685c-.12158.13245-.26111.10168-.31201-.07458l-2.50439-8.74158c-.04822-.17639.00421-.43317.12097-.57336 0 0 .68103-.81348.68036-1.54987-.00153-1.25745-1.0238-2.27533-2.28156-2.27332-1.25592.00153-2.27618 1.02161-2.2738 2.27979.00067 1.25641 1.02429 2.27576 2.27979 2.27356.26025 0 .42499-.04468.42499-.04468.17584-.04443.35803.06036.40381.2348l2.16785 8.33057c.04663.17334-.05481.26538-.22333.19989l-2.78857-1.07794c-.1676-.0639-.38452-.24457-.4776-.39935 0 0-.79187-1.30219-1.74268-1.30066-1.07666.00134-1.94586.87323-1.94434 1.94806.00159 1.07599.87189 1.94678 1.94965 1.94214.81635 0 1.59363-.96234 1.59363-.96234.11389-.13843.33478-.17932.4931-.086l2.28174 1.33997c.1546.09204.22162.30365.14661.46814l-4.44214 9.81592c-.75616.11237-1.52441.18756-2.30286.22375l-5.5954-9.7157c-.09039-.15765-.16913-.43451-.17865-.61407l-.76392-17.10199c-.00665-.18024.12445-.383.2923-.45068l3.26904-1.30304c.17139-.0661.41284-.01434.53821.11475 0 0 1.37079 1.40344 2.57233 1.40039 1.77667-.0022 3.21643-1.44348 3.21381-3.22107-.00244-1.77606-1.44507-3.21289-3.22198-3.21069-1.77411.00201-3.21313 1.44348-3.21021 3.21887 0 .23993.02405.3739.02405.3739.02985.17932-.09039.36157-.26538.40399l-3.29401.79315c-.17932.04315-.27551-.06409-.21936-.23462l2.60193-7.77374c.05774-.17114.1283-.30981.1568-.30823 0 0 0 0 .02631-.00067 1.33643-.00244 2.41687-1.08569 2.41467-2.42151-.00116-1.33405-1.08484-2.4162-2.42065-2.41394-1.33557.00153-2.41504 1.08563-2.414 2.41992.00159 1.01056 1.24316 2.02527 1.24316 2.02527.13995.11475.19702.34583.12189.51031l-2.81274 6.30969c-.07141.16699-.27948.26758-.4566.22443l-4.18427-.98926c-.17401-.04132-.40796-.1955-.5174-.34186 0 0-.7525-1.00165-1.57263-1.00165-1.03241.00104-1.8689.83978-1.86646 1.87201.00153 1.03082.83911 1.86804 1.87067 1.86493.87274-.00067 1.62457-1.13501 1.62457-1.13501.10126-.15173.32281-.22443.49512-.16827l3.8327 1.29907c.17133.05817.3186.25494.32654.43604l.87567 18.79047c.00574.18378.06628.47101.12982.63885l3.5473 9.56763c-11.30342-1.35427-20.06758-10.96944-20.06758-22.63759 0-12.59607 10.21112-22.80719 22.80719-22.80719 12.59601 0 22.80713 10.21112 22.80713 22.80719 0 9.88251-6.28662 18.29456-15.07794 21.46136l1.42438-8.3432c.03137-.17804.15674-.43317.27832-.56738l3.2525-3.51941c.12469-.13116.35803-.17645.52008-.09393 0 0 .26227.12823.59106.12823.85443-.00134 1.54938-.69702 1.54718-1.55292 0-.85577-.69696-1.55072-1.55292-1.54919z"/></g></svg>